# xmcd CD database file
#
# Track frame offsets:
#	150
#	35287
#	48905
#	75358
#	104241
#	129686
#	159279
#	194280
#	223544
#	246400
#	274197
#	297917
#
# Disc length: 4293 seconds
#
# Revision: 1
# Processed by: cddbd v1.5.2PL0 Copyright (c) Steve Scherf et al.
# Submitted via: CDex 1.51
#
DISCID=ac10c30c
DTITLE=Robert Ludlum - The Ambler Warning [CD11 of 14)
DYEAR=2005
DGENRE=Audio Book
TTITLE0=The Ambler Warning 1101
TTITLE1=The Ambler Warning 1102
TTITLE2=The Ambler Warning 1103
TTITLE3=The Ambler Warning 1104
TTITLE4=The Ambler Warning 1105
TTITLE5=The Ambler Warning 1106
TTITLE6=The Ambler Warning 1107
TTITLE7=The Ambler Warning 1108
TTITLE8=The Ambler Warning 1109
TTITLE9=The Ambler Warning 1110
TTITLE10=The Ambler Warning 1111
TTITLE11=The Ambler Warning 1112
EXTD=YEAR: 2005
EXTT0=
EXTT1=
EXTT2=
EXTT3=
EXTT4=
EXTT5=
EXTT6=
EXTT7=
EXTT8=
EXTT9=
EXTT10=
EXTT11=
PLAYORDER=
